PathFileType	4	(X/Y/Z)	/tmp/tmpvaf8quct/results/MarkerData/markers_smpl.trc
DataRate	CameraRate	NumFrames	NumMarkers	Units	OrigDataRate	OrigDataStartFrame	OrigNumFrames
120	120	8	44	m	120	447	597
Frame#	Time	C7			CLAV			LANK			LBHD			LBWT			LELB			LFHD			LFIN			LFRM			LFWT			LHEE			LKNE			LMT5			LPAT			LSHN			LSHO			LTHI			LTOE			LUPA			LWLA			LWRB			RANK			RBAC			RBHD			RBWT			RELB			RFHD			RFIN			RFRM			RFWT			RHEE			RKNE			RMT5			RPAT			RSHN			RSHO			RTHI			RTOE			RUPA			RWRA			RWRB			STRN			T10			T8		
		X1	Y1	Z1	X2	Y2	Z2	X3	Y3	Z3	X4	Y4	Z4	X5	Y5	Z5	X6	Y6	Z6	X7	Y7	Z7	X8	Y8	Z8	X9	Y9	Z9	X10	Y10	Z10	X11	Y11	Z11	X12	Y12	Z12	X13	Y13	Z13	X14	Y14	Z14	X15	Y15	Z15	X16	Y16	Z16	X17	Y17	Z17	X18	Y18	Z18	X19	Y19	Z19	X20	Y20	Z20	X21	Y21	Z21	X22	Y22	Z22	X23	Y23	Z23	X24	Y24	Z24	X25	Y25	Z25	X26	Y26	Z26	X27	Y27	Z27	X28	Y28	Z28	X29	Y29	Z29	X30	Y30	Z30	X31	Y31	Z31	X32	Y32	Z32	X33	Y33	Z33	X34	Y34	Z34	X35	Y35	Z35	X36	Y36	Z36	X37	Y37	Z37	X38	Y38	Z38	X39	Y39	Z39	X40	Y40	Z40	X41	Y41	Z41	X42	Y42	Z42	X43	Y43	Z43	X44	Y44	Z44

448	3.725	0.401043	1.53911	-0.238836	0.522448	1.48149	-0.211948	0.509819	0.10403	-0.156264	0.520311	1.68914	-0.285735	0.307232	1.03813	-0.138939	0.754995	1.33203	-0.216384	0.632442	1.72731	-0.253873	0.955542	1.45976	0.0870165	0.83922	1.39535	-0.153734	0.420576	1.05692	-0.322694	0.515214	0.0756874	-0.0937087	0.438975	0.559382	-0.256471	0.613104	0.0444578	-0.264101	0.540292	0.530331	-0.283217	0.43479	0.406391	-0.226009	0.424791	1.54308	-0.0602461	0.369119	0.787087	-0.31072	0.694818	0.035454	-0.291002	0.686073	1.42517	-0.313107	0.873331	1.43081	0.00119805	0.912097	1.39602	-0.0157938	0.975612	0.510218	-0.622822	0.344102	1.48924	-0.188457	0.456115	1.68527	-0.18942	0.368697	1.04767	-0.0738873	0.204121	1.26628	-0.0287895	0.567989	1.71476	-0.130485	-0.0409713	1.07181	0.165385	0.0827889	1.19408	0.0690912	0.550768	1.09429	-0.137108	0.941432	0.449644	-0.628508	0.77808	0.839805	-0.413981	1.08046	0.539702	-0.725674	0.7595	0.88606	-0.504865	0.890317	0.701008	-0.503384	0.520106	1.53007	-0.356613	0.690813	0.897225	-0.2686	1.08292	0.575624	-0.819563	0.322188	1.4654	-0.0230221	0.0690244	1.13379	0.153499	0.0457255	1.11516	0.102484	0.537989	1.32753	-0.213731	0.331059	1.27249	-0.192192	0.335385	1.39979	-0.2256
449	3.73333	0.404761	1.53521	-0.240068	0.526891	1.47821	-0.215579	0.51646	0.0999985	-0.169532	0.523311	1.68556	-0.290044	0.314983	1.03424	-0.13729	0.757246	1.32919	-0.218685	0.635497	1.72431	-0.258886	0.940166	1.47181	0.0898128	0.836861	1.39695	-0.15365	0.4237	1.05352	-0.323675	0.523885	0.0721691	-0.107155	0.443101	0.555833	-0.264242	0.615123	0.0386332	-0.280728	0.543188	0.526773	-0.295321	0.439494	0.402738	-0.234449	0.432852	1.54071	-0.0622574	0.371659	0.784253	-0.313123	0.69571	0.0282693	-0.310422	0.687393	1.42211	-0.316332	0.862494	1.43706	0.00188303	0.903327	1.40341	-0.0125793	0.965085	0.497855	-0.637903	0.349291	1.48541	-0.187986	0.459855	1.68159	-0.193257	0.378023	1.04328	-0.0738869	0.212522	1.26442	-0.0268606	0.571856	1.71162	-0.135115	-0.0305671	1.07073	0.170442	0.0922335	1.19264	0.0725884	0.558913	1.08939	-0.141488	0.929074	0.438329	-0.643705	0.777944	0.828925	-0.421913	1.06957	0.525171	-0.741642	0.759056	0.876318	-0.512212	0.885684	0.68873	-0.514683	0.521628	1.5265	-0.36001	0.694315	0.888241	-0.275304	1.07205	0.561776	-0.835288	0.331093	1.46323	-0.0229175	0.0793509	1.13266	0.157365	0.055477	1.11387	0.106639	0.543139	1.32452	-0.217356	0.337261	1.26831	-0.190237	0.340045	1.39575	-0.224346
450	3.74167	0.408501	1.53051	-0.241108	0.5314	1.47433	-0.219029	0.521939	0.0951104	-0.182632	0.526607	1.68094	-0.294339	0.323175	1.02962	-0.135981	0.759778	1.32572	-0.221203	0.638949	1.72011	-0.264015	0.925443	1.48352	0.0902353	0.834639	1.39779	-0.154122	0.427762	1.04933	-0.32468	0.529564	0.0668977	-0.120603	0.447553	0.55154	-0.272169	0.619656	0.0342044	-0.295002	0.547185	0.522664	-0.305036	0.444228	0.398188	-0.243986	0.440883	1.53773	-0.0642333	0.375737	0.780767	-0.316293	0.699985	0.0231255	-0.325176	0.688914	1.41845	-0.31963	0.851946	1.44244	0.0014587	0.894535	1.40979	-0.0103346	0.954853	0.484684	-0.651986	0.354607	1.48067	-0.187388	0.463941	1.6772	-0.197044	0.387613	1.0382	-0.0740924	0.220278	1.2625	-0.0252975	0.576176	1.70764	-0.139781	-0.0196521	1.06906	0.175821	0.101698	1.19069	0.076191	0.567387	1.08368	-0.145818	0.917159	0.42614	-0.657383	0.777633	0.817025	-0.429784	1.05855	0.509398	-0.75702	0.758068	0.865173	-0.519676	0.881126	0.675677	-0.52569	0.523173	1.52232	-0.363179	0.697845	0.878385	-0.281997	1.06087	0.546156	-0.85062	0.33989	1.46056	-0.0227664	0.0901825	1.13076	0.161135	0.0654721	1.1119	0.110823	0.548645	1.32099	-0.220919	0.344119	1.26324	-0.18819	0.345042	1.39078	-0.222962
451	3.75	0.411933	1.52518	-0.241914	0.535559	1.46982	-0.222306	0.525599	0.0908527	-0.192248	0.529419	1.67548	-0.29861	0.330585	1.02479	-0.134473	0.763233	1.32158	-0.224219	0.641908	1.71514	-0.269167	0.91089	1.49391	0.089107	0.832983	1.39811	-0.155548	0.429944	1.04505	-0.325916	0.531545	0.061961	-0.130555	0.45008	0.546935	-0.281113	0.627151	0.0321575	-0.302636	0.549673	0.518386	-0.31493	0.447375	0.39345	-0.254378	0.448936	1.53402	-0.0661553	0.377407	0.777006	-0.319399	0.708491	0.0214371	-0.330303	0.690703	1.41416	-0.323022	0.842036	1.44688	-0.000440001	0.886353	1.41556	-0.00960192	0.943944	0.470856	-0.665079	0.359748	1.47532	-0.186548	0.467534	1.67216	-0.200772	0.396765	1.03255	-0.0744403	0.227802	1.26011	-0.0239174	0.580002	1.7031	-0.144473	-0.00817308	1.06648	0.181463	0.111317	1.1881	0.0799685	0.574878	1.077	-0.151106	0.904427	0.413538	-0.669951	0.777381	0.805056	-0.437497	1.04678	0.492449	-0.771683	0.757707	0.854161	-0.527058	0.876319	0.662183	-0.536086	0.524562	1.51747	-0.366057	0.700701	0.868153	-0.288876	1.04882	0.529233	-0.865319	0.348812	1.45724	-0.022554	0.101526	1.12804	0.164932	0.0757994	1.10922	0.115142	0.553829	1.31685	-0.22449	0.350872	1.25777	-0.186048	0.349864	1.38524	-0.221508
452	3.75833	0.415205	1.5192	-0.242524	0.539498	1.46462	-0.225852	0.523628	0.0877251	-0.194993	0.531888	1.6696	-0.302811	0.338156	1.01897	-0.133265	0.763496	1.31668	-0.226067	0.644431	1.70993	-0.27424	0.895782	1.50276	0.0866127	0.829261	1.39694	-0.156891	0.432298	1.04053	-0.327117	0.52748	0.0578798	-0.133671	0.455615	0.542825	-0.291656	0.629662	0.0311922	-0.302755	0.555187	0.513844	-0.325889	0.450981	0.390144	-0.264023	0.457142	1.52931	-0.06814	0.381113	0.773124	-0.323526	0.712159	0.0211806	-0.327302	0.690596	1.40903	-0.326155	0.831465	1.45012	-0.00299466	0.876974	1.41986	-0.00962433	0.933993	0.45623	-0.677147	0.364924	1.46926	-0.185533	0.470829	1.6664	-0.204407	0.405937	1.02618	-0.0750416	0.235994	1.25638	-0.0222702	0.583419	1.69802	-0.149033	0.00338188	1.06339	0.187269	0.121467	1.18428	0.0838209	0.581976	1.0706	-0.156367	0.892943	0.399988	-0.681261	0.777244	0.792282	-0.444938	1.03501	0.47519	-0.786208	0.757163	0.841944	-0.53431	0.871959	0.648054	-0.545937	0.525091	1.51212	-0.369096	0.703765	0.857588	-0.295641	1.03585	0.512193	-0.879747	0.358099	1.45278	-0.022333	0.11328	1.124	0.168714	0.0864122	1.10535	0.119458	0.558639	1.31182	-0.228489	0.357317	1.2517	-0.18414	0.354502	1.37906	-0.21994
453	3.76667	0.418502	1.51284	-0.242862	0.543365	1.45886	-0.229042	0.520576	0.086015	-0.19352	0.534775	1.66342	-0.306891	0.346026	1.01226	-0.132242	0.768186	1.3122	-0.23077	0.647507	1.70393	-0.278876	0.881722	1.5089	0.0831262	0.829136	1.39653	-0.161272	0.435272	1.03569	-0.328089	0.52336	0.0553792	-0.132246	0.464434	0.538962	-0.302939	0.627877	0.0302675	-0.300426	0.563982	0.509318	-0.337263	0.456574	0.387692	-0.272872	0.465563	1.52402	-0.0698098	0.387107	0.768919	-0.328547	0.710621	0.0204701	-0.32405	0.692312	1.40398	-0.330698	0.824582	1.45232	-0.00865412	0.871657	1.42426	-0.013092	0.924835	0.440485	-0.687677	0.370144	1.46295	-0.184194	0.474411	1.66059	-0.208131	0.415332	1.01908	-0.075795	0.244423	1.25206	-0.0205439	0.586949	1.69241	-0.15338	0.0149272	1.06006	0.1929	0.131948	1.17986	0.0877968	0.589232	1.06406	-0.161408	0.88275	0.385022	-0.690652	0.777261	0.77865	-0.451893	1.02313	0.457456	-0.799828	0.756334	0.82841	-0.541251	0.867978	0.633082	-0.554953	0.525746	1.50586	-0.371804	0.707093	0.846504	-0.30216	1.02195	0.49453	-0.893311	0.367709	1.44785	-0.0216177	0.125413	1.11911	0.172354	0.0971969	1.10084	0.123702	0.563174	1.30629	-0.231854	0.363781	1.2451	-0.181846	0.359096	1.37245	-0.21793
454	3.775	0.421285	1.50635	-0.243124	0.54657	1.45273	-0.232278	0.51696	0.0843755	-0.192211	0.537591	1.65684	-0.310963	0.35409	1.00484	-0.131584	0.771437	1.3068	-0.235885	0.650609	1.69723	-0.283529	0.867785	1.51417	0.0772219	0.827773	1.39487	-0.166383	0.438892	1.0303	-0.329081	0.519329	0.0526544	-0.131025	0.474243	0.534841	-0.313926	0.624245	0.029894	-0.299605	0.573778	0.504443	-0.348004	0.462647	0.385212	-0.281384	0.47388	1.51829	-0.0713739	0.394259	0.76424	-0.33389	0.706898	0.0206584	-0.323456	0.692901	1.3982	-0.335632	0.816768	1.45343	-0.0153167	0.865069	1.42732	-0.0175993	0.916026	0.424259	-0.697006	0.374851	1.45655	-0.182696	0.477914	1.65455	-0.211851	0.42473	1.01144	-0.0767805	0.252825	1.24736	-0.0183566	0.59049	1.68637	-0.157746	0.026003	1.05737	0.198547	0.142654	1.17477	0.0921783	0.596579	1.0574	-0.166245	0.873107	0.369442	-0.698552	0.777121	0.764577	-0.458537	1.01128	0.439117	-0.812248	0.754958	0.814168	-0.547958	0.864078	0.617772	-0.563383	0.525485	1.49931	-0.374632	0.710461	0.835107	-0.308472	1.00803	0.475915	-0.90573	0.377367	1.44254	-0.0205005	0.137775	1.1135	0.176385	0.1082	1.0955	0.128376	0.566795	1.30042	-0.235302	0.369654	1.23802	-0.179514	0.363054	1.36564	-0.215863
455	3.78333	0.424652	1.49959	-0.242931	0.550191	1.44615	-0.23614	0.513829	0.0824411	-0.192318	0.539907	1.65025	-0.314929	0.361883	0.997561	-0.130788	0.771906	1.29979	-0.240501	0.653152	1.69099	-0.288431	0.853694	1.51824	0.0697904	0.824236	1.39146	-0.171673	0.441599	1.0248	-0.330046	0.516754	0.0496576	-0.131265	0.481042	0.530331	-0.324239	0.620244	0.0299948	-0.301387	0.580132	0.499307	-0.359199	0.466654	0.382227	-0.289493	0.483258	1.51166	-0.0728778	0.398759	0.759302	-0.338446	0.702686	0.0221268	-0.326398	0.6919	1.39134	-0.340508	0.807234	1.45354	-0.0225815	0.856402	1.42902	-0.022878	0.908024	0.408546	-0.70572	0.380505	1.4498	-0.180712	0.481241	1.64797	-0.21518	0.433976	1.0036	-0.0778561	0.261031	1.24281	-0.016779	0.593981	1.68021	-0.162188	0.0411626	1.0499	0.205466	0.154178	1.16981	0.0968222	0.603541	1.05	-0.171459	0.864256	0.354517	-0.705562	0.777041	0.750746	-0.465014	0.999931	0.420632	-0.824248	0.753817	0.800269	-0.554529	0.860586	0.602847	-0.571323	0.524881	1.49267	-0.377537	0.713381	0.82369	-0.314808	0.9943	0.456699	-0.917916	0.388027	1.4364	-0.019693	0.151603	1.10761	0.180345	0.120471	1.09047	0.133105	0.570507	1.2939	-0.239636	0.375709	1.23099	-0.177197	0.367554	1.35882	-0.213298
